<svg data-name="Layer 1" xmlns="http://www.w3.org/2000/svg" viewBox="0 0 144 112.63"><path d="M129.48 64.05c-.47-.47-1.09-.72-1.74-.72-.09 0-.19 0-.28.02-.75.08-1.41.51-1.81 1.15-1.05 1.69-2.41 3.32-4.08 4.88-.56-4.27-.84-8.65-.84-13.05s.28-8.78.84-13.06c1.67 1.56 3.03 3.19 4.08 4.88.4.64 1.06 1.06 1.81 1.15.1.02.19.02.28.02.65 0 1.28-.26 1.74-.72l13.8-13.8c.89-.89.97-2.31.18-3.29-3.9-4.85-8.9-9.21-14.88-12.99 1.06-2.26 2.21-4.39 3.44-6.36a2.457 2.457 0 0 0-.84-3.42c-5.57-3.27-11.7-6.03-18.22-8.21-.26-.08-.52-.13-.78-.13-.86 0-1.67.45-2.13 1.22a96.81 96.81 0 0 0-3.74 7.09C96.84 5.98 86.78 4.6 76.38 4.6c-9.16 0-18.11 1.08-26.61 3.21L43.59.84c-.47-.53-1.15-.83-1.84-.83-.25 0-.51.04-.75.12-6.96 2.23-13.49 5.13-19.41 8.6-.63.37-1.07 1.01-1.18 1.74-.1.65.06 1.32.45 1.85 1.19 1.93 2.3 4 3.33 6.19C8.78 28.25 0 41.94 0 56.32s8.78 28.06 24.18 37.81a62.73 62.73 0 0 1-3.44 6.36c-.35.57-.45 1.25-.3 1.89.16.65.57 1.2 1.14 1.53 5.57 3.27 11.7 6.03 18.22 8.21.26.09.52.13.78.13.86 0 1.68-.45 2.13-1.22 1.32-2.26 2.57-4.64 3.73-7.09 9.47 2.72 19.52 4.11 29.93 4.11 9.17 0 18.11-1.08 26.61-3.21l6.18 6.96c.48.54 1.15.83 1.84.83.25 0 .51-.04.75-.12 6.96-2.23 13.49-5.13 19.41-8.61a2.46 2.46 0 0 0 1.19-1.74c.1-.66-.06-1.32-.45-1.85-1.19-1.93-2.31-4-3.34-6.19 5.98-3.78 10.98-8.14 14.88-12.99.79-.98.71-2.4-.18-3.29l-13.8-13.8zm-72.81-7.73c0-1.24-.02-2.48-.06-3.71l27.11 30.53c-2.44.18-4.89.28-7.34.28-7.68 0-15.3-.92-22.22-2.67 1.66-7.91 2.51-16.12 2.51-24.43zm39.42 0c0 1.23.02 2.47.06 3.71L69.04 29.5c2.42-.18 4.88-.28 7.34-.28 7.68 0 15.3.92 22.21 2.67-1.66 7.91-2.5 16.12-2.5 24.43zm-71.45 0c0-5.42 3.1-9.83 6.55-13.06.56 4.28.84 8.65.84 13.06s-.28 8.78-.84 13.06c-3.45-3.23-6.55-7.64-6.55-13.06z" style="fill:#13294b"/><path d="M119.79 74.02c-.99-5.62-1.53-11.56-1.53-17.7s.53-12.08 1.53-17.7c3.39 2.47 6.1 5.24 7.95 8.23l13.8-13.8c-4.14-5.14-9.61-9.73-16.1-13.57 1.34-3.09 2.84-5.98 4.48-8.63-5.39-3.17-11.35-5.86-17.75-8-1.64 2.79-3.14 5.74-4.52 8.82-9.5-2.96-20.09-4.62-31.27-4.62-9.7 0-18.96 1.25-27.45 3.51l-7.19-8.09c-6.85 2.2-13.2 5.03-18.91 8.38l.03.04c1.63 2.64 3.13 5.51 4.46 8.58C12.07 28.49 2.46 41.66 2.46 56.32s9.61 27.82 24.85 36.85a67.123 67.123 0 0 1-4.48 8.62c5.39 3.17 11.35 5.86 17.75 8 1.64-2.79 3.14-5.73 4.52-8.81 9.5 2.96 20.1 4.62 31.27 4.62 9.7 0 18.96-1.25 27.45-3.51l7.18 8.09c6.85-2.2 13.2-5.03 18.91-8.38l-.03-.03c-1.64-2.64-3.13-5.51-4.46-8.59 6.49-3.84 11.96-8.43 16.1-13.57l-13.8-13.8c-1.85 2.99-4.56 5.76-7.95 8.23zm-86.82 0c-6.78-4.94-10.79-11.06-10.79-17.71s4.01-12.77 10.79-17.71c.99 5.62 1.52 11.56 1.52 17.71s-.53 12.08-1.52 17.71zm43.41 11.86c-9.07 0-17.62-1.22-25.13-3.37 1.92-8.24 2.95-17.05 2.95-26.2 0-3.61-.16-7.18-.47-10.67l35.03 39.45c-3.98.51-8.12.78-12.38.78zm22.65-18.9L63.99 27.53c3.98-.51 8.12-.78 12.38-.78 9.07 0 17.61 1.22 25.13 3.37-1.91 8.24-2.95 17.05-2.95 26.2 0 3.61.16 7.17.48 10.66z" style="fill:#4b9cd3"/></svg>